<svg xmlns="http://www.w3.org/2000/svg" width="30" height="30" fill="none" viewBox="0 0 30 30"><path fill="#333" d="M22.813 8.125H7.188A2.19 2.19 0 0 0 5 10.313v9.375a2.19 2.19 0 0 0 2.188 2.187h15.625A2.19 2.19 0 0 0 25 19.688v-9.375a2.19 2.19 0 0 0-2.187-2.188ZM7.188 9.375h15.625a.94.94 0 0 1 .938.938v1.25H6.25v-1.25a.939.939 0 0 1 .938-.938Zm15.625 11.25H7.188a.939.939 0 0 1-.938-.937v-6.875h17.5v6.875a.939.939 0 0 1-.937.937Z"/><path fill="#FF5F5D" d="M9.375 18.75H8.75a.625.625 0 0 1-.625-.625V17.5a.625.625 0 0 1 .625-.625h.625A.625.625 0 0 1 10 17.5v.625a.625.625 0 0 1-.625.625Z"/><path fill="red" d="M10.312 18.75h-.625a.625.625 0 0 1-.625-.625V17.5a.625.625 0 0 1 .625-.625h.625a.625.625 0 0 1 .625.625v.625a.625.625 0 0 1-.625.625Z"/></svg>