<svg xmlns="http://www.w3.org/2000/svg" width="21" height="21" fill="none" viewBox="0 0 21 21"><g clip-path="url(#clip0_783_3480)"><path fill="#1C2120" stroke="#1C2120" stroke-width=".3" d="M19.248 2.842C18.108 1.655 16.598 1 14.99 1a5.842 5.842 0 0 0-3.988 1.574A5.841 5.841 0 0 0 7.014 1c-1.608 0-3.12.655-4.26 1.842-2.338 2.446-2.338 6.423 0 8.868l6.074 6.352c.58.603 1.351.938 2.169.938.822 0 1.59-.335 2.168-.938 0 0 6.014-6.286 6.074-6.352 2.348-2.445 2.348-6.422.01-8.868Zm-.877 7.987-6.074 6.352a1.778 1.778 0 0 1-2.591 0s-6.019-6.29-6.074-6.352c-1.874-1.96-1.874-5.15 0-7.11a4.644 4.644 0 0 1 3.386-1.466c1.278 0 2.481.523 3.386 1.466.046.047.092.104.143.16.248.264.61.278.919 0 .06-.052.096-.108.142-.16a4.645 4.645 0 0 1 3.386-1.466c1.277 0 2.48.523 3.386 1.466 1.865 1.965 1.865 5.15-.01 7.11Z"/></g><defs><clipPath id="clip0_783_3480"><path fill="#fff" d="M.001 0H20.43v20.429H.001z"/></clipPath></defs></svg>