<svg xmlns="http://www.w3.org/2000/svg" width="2500" height="2574" fill="none"><g clip-path="url(#a)"><path fill="#535164" d="M0 299.001c0-86.668 28.154-158.168 84.46-214.5C140.764 28.169 213.964.003 304.053.003c88.482 0 160.07 27.732 214.768 83.2 56.306 57.2 84.46 131.731 84.46 223.599 0 83.2-27.348 152.532-82.046 208-56.306 57.2-130.309 85.8-222.008 85.8h-2.413c-88.482 0-160.07-28.6-214.769-85.8C27.348 457.601 0 385.667 0 299.001ZM31.37 2574V837.201h535.715V2574H31.371Zm832.53 0h535.71v-969.8c0-60.67 6.44-107.47 19.31-140.4 22.52-58.93 56.71-108.77 102.56-149.5 45.85-40.73 103.36-61.1 172.54-61.1 180.18 0 270.27 130.87 270.27 392.6V2574H2500v-995.8c0-256.53-56.31-451.1-168.92-583.7-112.61-132.599-261.42-198.899-446.43-198.899-207.53 0-369.21 96.2-485.04 288.599v5.2h-2.41l2.41-5.2V837.201H863.9c3.216 55.465 4.826 227.929 4.826 517.399s-1.61 695.93-4.826 1219.4Z"/></g><defs><clipPath id="a"><path fill="#fff" d="M0 0h2500v2574H0z"/></clipPath></defs></svg>