<svg xmlns="http://www.w3.org/2000/svg" width="20" height="21" fill="none"><g stroke="#1C2120" stroke-linecap="round" stroke-linejoin="round" stroke-opacity=".75" clip-path="url(#a)"><path d="M16.667 5.5v10A1.667 1.667 0 0 1 15 17.167H6.667A1.667 1.667 0 0 1 5 15.5v-10a1.667 1.667 0 0 1 1.667-1.667H15A1.667 1.667 0 0 1 16.667 5.5ZM8.333 13.834h5"/><path d="M9.167 9.667a1.667 1.667 0 1 0 3.334 0 1.667 1.667 0 0 0-3.334 0ZM3.333 7.167h2.5M3.333 10.5h2.5M3.333 13.834h2.5"/></g><defs><clipPath id="a"><path fill="#fff" d="M0 .5h20v20H0z"/></clipPath></defs></svg>