<svg xmlns="http://www.w3.org/2000/svg" width="38" height="38" fill="none"><circle cx="19" cy="19" r="19" fill="#FF5F5D" fill-opacity=".14"/><path fill="#FF5F5D" d="M19.182 19.455A4.187 4.187 0 0 1 15 15.273a4.187 4.187 0 0 1 4.182-4.182 4.187 4.187 0 0 1 4.182 4.182 4.187 4.187 0 0 1-4.182 4.182Zm0-7.273a3.098 3.098 0 0 0-3.091 3.091c0 1.702 1.389 3.091 3.09 3.091 1.703 0 3.092-1.39 3.092-3.09 0-1.703-1.39-3.092-3.091-3.092ZM25.13 27.727a.55.55 0 0 1-.545-.545c0-2.51-2.56-4.546-5.701-4.546-3.142 0-5.702 2.037-5.702 4.546a.55.55 0 0 1-.546.545.55.55 0 0 1-.545-.545c0-3.106 3.047-5.637 6.793-5.637 3.745 0 6.792 2.531 6.792 5.637a.55.55 0 0 1-.545.545Z"/></svg>