<svg xmlns="http://www.w3.org/2000/svg" width="95" height="83.375" viewBox="0 0 95 83.375"><path id="prefix___05_apostrophy_" d="M84.281-34.875a8.408 8.408 0 0 1 6.176 2.543A8.408 8.408 0 0 1 93-26.156v23.25a8.408 8.408 0 0 1-2.543 6.176 8.408 8.408 0 0 1-6.176 2.543h-23.25a8.408 8.408 0 0 1-6.176-2.543 8.408 8.408 0 0 1-2.543-6.176V-46.5a28.429 28.429 0 0 1 3.905-14.531 28.856 28.856 0 0 1 10.627-10.626 28.429 28.429 0 0 1 14.531-3.905h1.453a4.2 4.2 0 0 1 3.088 1.271 4.2 4.2 0 0 1 1.272 3.091v8.719a4.2 4.2 0 0 1-1.272 3.081 4.2 4.2 0 0 1-3.088 1.271h-1.453a11.172 11.172 0 0 0-8.175 3.455 11.172 11.172 0 0 0-3.45 8.174v11.625zm-52.312 0a8.408 8.408 0 0 1 6.176 2.543 8.408 8.408 0 0 1 2.543 6.176v23.25a8.408 8.408 0 0 1-2.543 6.176 8.408 8.408 0 0 1-6.176 2.543H8.719A8.408 8.408 0 0 1 2.543 3.27 8.408 8.408 0 0 1 0-2.906V-46.5a28.429 28.429 0 0 1 3.905-14.531 28.856 28.856 0 0 1 10.626-10.626 28.429 28.429 0 0 1 14.531-3.905h1.453a4.2 4.2 0 0 1 3.085 1.271 4.2 4.2 0 0 1 1.275 3.091v8.719A4.2 4.2 0 0 1 33.6-59.4a4.2 4.2 0 0 1-3.088 1.271h-1.449a11.172 11.172 0 0 0-8.174 3.451 11.172 11.172 0 0 0-3.451 8.178v11.625z" data-name="05_apostrophy_" style="fill:none;stroke:#fff;stroke-width:2px;opacity:.4" transform="translate(1 76.563)"/></svg>