<svg xmlns="http://www.w3.org/2000/svg" width="18" height="19" fill="none"><g fill="#565959" clip-path="url(#a)"><path d="M16.737 8.347a7.74 7.74 0 0 0-15.469 0A1.823 1.823 0 0 0 .18 10.01v2.042A1.82 1.82 0 0 0 2 13.871a1.178 1.178 0 0 0 1.178-1.176V9.368a1.176 1.176 0 0 0-1.063-1.164 6.896 6.896 0 0 1 13.78 0 1.173 1.173 0 0 0-1.06 1.164v3.327a1.179 1.179 0 0 0 1.078 1.168v.843a1.718 1.718 0 0 1-1.716 1.716H12.91a1.296 1.296 0 0 0-.281-.48 1.268 1.268 0 0 0-.903-.375h-1.32a1.238 1.238 0 0 0-.533.118 1.277 1.277 0 0 0 .534 2.433h1.31a1.282 1.282 0 0 0 1.202-.844h1.27a2.562 2.562 0 0 0 2.56-2.56v-.995a1.82 1.82 0 0 0 1.077-1.66v-2.05a1.826 1.826 0 0 0-1.088-1.662ZM2.334 9.368v3.327a.335.335 0 0 1-.335.332.976.976 0 0 1-.976-.976V10.01A.979.979 0 0 1 2 9.034a.338.338 0 0 1 .335.334Zm9.799 7.563a.433.433 0 0 1-.422.343h-1.305a.433.433 0 1 1 0-.866h1.31a.428.428 0 0 1 .307.13.422.422 0 0 1 .127.303.468.468 0 0 1-.017.09Zm4.843-4.88a.976.976 0 0 1-.976.976.335.335 0 0 1-.335-.332V9.368A.337.337 0 0 1 16 9.034a.979.979 0 0 1 .976.975v2.042Z"/><path d="M11.731 12.197a1.789 1.789 0 0 0 1.789-1.786V6.755a1.785 1.785 0 0 0-1.789-1.786H6.27A1.789 1.789 0 0 0 4.48 6.755v3.656a1.789 1.789 0 0 0 1.79 1.786h.033v.959a.872.872 0 0 0 1.493.616l1.57-1.561 2.365-.014Zm-2.838-.729-1.687 1.688s0 .014-.028 0a.028.028 0 0 1-.02-.03v-1.351a.422.422 0 0 0-.422-.422H6.27a.945.945 0 0 1-.945-.942V6.755a.945.945 0 0 1 .945-.942h5.462a.945.945 0 0 1 .945.942v3.656a.945.945 0 0 1-.945.942H9.2a.422.422 0 0 0-.307.115Z"/><path d="M6.95 8.035a.622.622 0 1 0 .005 1.243.622.622 0 0 0-.005-1.243ZM9 8.035a.622.622 0 1 0 0 1.243.622.622 0 0 0 0-1.243ZM11.047 8.035a.622.622 0 1 0 .006 1.243.622.622 0 0 0-.006-1.243Z"/></g><defs><clipPath id="a"><path fill="#fff" d="M0 .5h18v18H0z"/></clipPath></defs></svg>