<svg xmlns="http://www.w3.org/2000/svg" width="300" height="300" fill="none"><path fill="#535267" d="M42.4 60.267c23.333 33.2 49.467 70.533 58.133 82.8C112.8 160.533 116 166 115.2 167.867c-.667 1.333-26.4 30.933-57.2 66C27.2 268.8 1.867 298 1.6 298.8c-.267.667 4.8 1.2 12 1.2H26l50.667-57.867c27.866-31.866 51.2-57.866 51.866-57.6.667.134 19.334 26 41.467 57.6l40.133 57.2 44.267.4c24.4.134 44.267 0 44.267-.266 0-.4-27.067-39.2-60-86.267-33.067-47.067-59.867-86.133-59.734-86.667C179.2 125.6 217.2 82.267 280.4 10.4L289.6 0h-26.267l-48 54.667c-26.4 30.133-48.4 54.666-48.8 54.666-.4 0-18-24.666-39.2-54.666L89.067 0H.133L42.4 60.267Zm127.2 89.466c51.2 71.734 93.067 130.667 93.067 131.067 0 .267-8.934.533-20 .533H222.8l-93.467-130.666C78 78.667 36 19.6 36 19.2c0-.267 9.2-.4 20.267-.267l20.4.4 92.933 130.4Z"/></svg>