<?xml version="1.0" encoding="utf-8"?>
<!-- Generator: Adobe Illustrator 19.2.0, SVG Export Plug-In . SVG Version: 6.00 Build 0)  -->
<svg version="1.1" id="Layer_1" xmlns="http://www.w3.org/2000/svg" xmlns:xlink="http://www.w3.org/1999/xlink" x="0px" y="0px"
	 viewBox="0 0 25 16" style="enable-background:new 0 0 25 16;" xml:space="preserve">
<style type="text/css">
	.st0{fill:#FFFFFF;}
</style>
<g>
	<path class="st0" d="M25,7.7C23.2,3.1,18.1,0,12.5,0S1.9,3.1,0.1,7.7C0,7.9,0,8.1,0.1,8.3C1.9,12.9,6.9,16,12.5,16
		S23.2,12.9,25,8.3C25.1,8.1,25.1,7.9,25,7.7z M12.5,14.4c-4.8,0-9.1-2.5-10.8-6.4c1.7-3.8,6-6.3,10.8-6.3S21.7,4.2,23.3,8
		C21.7,11.8,17.4,14.3,12.5,14.4L12.5,14.4z"/>
	<path class="st0" d="M12.9,4.2c-2.5,0-4.5,2-4.5,4.5c0,2.5,2,4.5,4.5,4.5c2.5,0,4.5-2,4.5-4.5C17.4,6.2,15.4,4.2,12.9,4.2z
		 M12.9,11.7c-1.6,0-3-1.3-3-3c0-1.6,1.3-3,3-3c1.6,0,3,1.3,3,3C15.8,10.3,14.5,11.7,12.9,11.7z"/>
</g>
</svg>
